<svg version="1.1" id="Layer_1" xmlns="http://www.w3.org/2000/svg" xmlns:xlink="http://www.w3.org/1999/xlink" x="0px" y="0px"
	 width="100%" viewBox="0 0 171 162" enable-background="new 0 0 171 162" xml:space="preserve">
<path fill="#FDFDFD" opacity="1.000000" stroke="none" 
	d="
M107.000000,163.000000 
	C71.333336,163.000000 36.166676,163.000000 1.000010,163.000000 
	C1.000006,109.000008 1.000006,55.000023 1.000003,1.000024 
	C57.999985,1.000016 114.999969,1.000016 171.999969,1.000008 
	C171.999969,54.999973 171.999969,108.999947 171.999985,162.999969 
	C150.500000,163.000000 129.000000,163.000000 107.000000,163.000000 
M98.659431,17.875046 
	C97.149025,16.842556 95.429535,16.015903 94.170006,14.736445 
	C91.177986,11.697086 88.776573,12.665039 85.638420,14.832870 
	C67.023277,27.692207 48.290024,40.382427 29.485905,52.964256 
	C26.788513,54.769085 25.889347,56.679787 25.914936,59.863457 
	C26.067535,78.848053 25.990433,97.834496 25.990431,116.820320 
	C25.990431,124.432030 25.990431,132.043732 25.990431,140.001724 
	C37.373547,140.001724 48.325150,140.042892 59.275478,139.943665 
	C60.488655,139.932678 61.847813,139.346344 62.881054,138.645935 
	C80.508591,126.696678 98.107132,114.704460 115.664032,102.651733 
	C116.809242,101.865540 118.331200,100.545029 118.377205,99.419891 
	C118.638443,93.030304 118.503731,86.624527 118.503731,79.482849 
	C98.660408,92.982811 79.539101,105.678665 60.808205,118.926529 
	C55.232498,122.870064 49.764488,122.017914 43.786270,121.990189 
	C43.786270,103.595924 43.672348,85.781235 43.948669,67.972595 
	C43.978912,66.023567 45.817387,63.479301 47.554775,62.276970 
	C63.969490,50.917431 80.548859,39.795929 97.068443,28.587656 
	C99.766525,26.757046 102.404457,24.837772 105.438515,22.699955 
	C103.011124,20.967798 101.128166,19.624142 98.659431,17.875046 
M150.592239,53.107491 
	C142.040863,47.334175 133.433090,41.641571 124.975517,35.733959 
	C122.702904,34.146542 121.136154,34.156582 118.832458,35.740749 
	C100.732864,48.187195 82.521088,60.470406 64.386986,72.866982 
	C63.232086,73.656479 61.651436,74.939812 61.604847,76.049507 
	C61.337883,82.407936 61.475044,88.783325 61.475044,95.935707 
	C63.982494,94.330910 65.531120,93.390480 67.028008,92.373894 
	C81.759613,82.369156 96.470886,72.334465 111.211960,62.343727 
	C121.973763,55.049934 121.931000,55.163094 132.662415,62.219448 
	C135.353287,63.988796 136.327148,65.902061 136.293457,69.121185 
	C136.122620,85.445557 136.221298,101.772675 136.201508,118.098808 
	C136.199966,119.366051 136.013504,120.633064 135.892548,122.157936 
	C133.608414,122.157936 131.629166,122.094269 129.655487,122.171761 
	C126.024155,122.314323 121.706665,121.340515 118.896080,122.956047 
	C110.500648,127.781769 102.696236,133.635712 93.641891,139.779648 
	C114.526688,139.779648 134.069702,139.779648 153.542450,139.779648 
	C153.735718,139.320724 153.962296,139.033630 153.962585,138.746323 
	C153.989197,111.925079 154.045868,85.103546 153.889374,58.283260 
	C153.880157,56.703217 152.144623,55.133251 150.592239,53.107491 
z"/>
<path fill="#070707" opacity="1.000000" stroke="none" 
	d="
M98.952316,18.077765 
	C101.128166,19.624142 103.011124,20.967798 105.438515,22.699955 
	C102.404457,24.837772 99.766525,26.757046 97.068443,28.587656 
	C80.548859,39.795929 63.969490,50.917431 47.554775,62.276970 
	C45.817387,63.479301 43.978912,66.023567 43.948669,67.972595 
	C43.672348,85.781235 43.786270,103.595924 43.786270,121.990189 
	C49.764488,122.017914 55.232498,122.870064 60.808205,118.926529 
	C79.539101,105.678665 98.660408,92.982811 118.503731,79.482849 
	C118.503731,86.624527 118.638443,93.030304 118.377205,99.419891 
	C118.331200,100.545029 116.809242,101.865540 115.664032,102.651733 
	C98.107132,114.704460 80.508591,126.696678 62.881054,138.645935 
	C61.847813,139.346344 60.488655,139.932678 59.275478,139.943665 
	C48.325150,140.042892 37.373547,140.001724 25.990431,140.001724 
	C25.990431,132.043732 25.990431,124.432030 25.990431,116.820320 
	C25.990433,97.834496 26.067535,78.848053 25.914936,59.863457 
	C25.889347,56.679787 26.788513,54.769085 29.485905,52.964256 
	C48.290024,40.382427 67.023277,27.692207 85.638420,14.832870 
	C88.776573,12.665039 91.177986,11.697086 94.170006,14.736445 
	C95.429535,16.015903 97.149025,16.842556 98.952316,18.077765 
z"/>
<path fill="#070707" opacity="1.000000" stroke="none" 
	d="
M150.902344,53.333042 
	C152.144623,55.133251 153.880157,56.703217 153.889374,58.283260 
	C154.045868,85.103546 153.989197,111.925079 153.962585,138.746323 
	C153.962296,139.033630 153.735718,139.320724 153.542450,139.779648 
	C134.069702,139.779648 114.526688,139.779648 93.641891,139.779648 
	C102.696236,133.635712 110.500648,127.781769 118.896080,122.956047 
	C121.706665,121.340515 126.024155,122.314323 129.655487,122.171761 
	C131.629166,122.094269 133.608414,122.157936 135.892548,122.157936 
	C136.013504,120.633064 136.199966,119.366051 136.201508,118.098808 
	C136.221298,101.772675 136.122620,85.445557 136.293457,69.121185 
	C136.327148,65.902061 135.353287,63.988796 132.662415,62.219448 
	C121.931000,55.163094 121.973763,55.049934 111.211960,62.343727 
	C96.470886,72.334465 81.759613,82.369156 67.028008,92.373894 
	C65.531120,93.390480 63.982494,94.330910 61.475044,95.935707 
	C61.475044,88.783325 61.337883,82.407936 61.604847,76.049507 
	C61.651436,74.939812 63.232086,73.656479 64.386986,72.866982 
	C82.521088,60.470406 100.732864,48.187195 118.832458,35.740749 
	C121.136154,34.156582 122.702904,34.146542 124.975517,35.733959 
	C133.433090,41.641571 142.040863,47.334175 150.902344,53.333042 
z"/>
</svg>